<svg version="1.1" xmlns="http://www.w3.org/2000/svg" xmlns:xlink="http://www.w3.org/1999/xlink" xmlns:ev="http://www.w3.org/2001/xml-events" xmlns:meerk40t="https://github.com/meerk40t/meerk40t/wiki/Namespace" width="310.0mm" height="210.0mm" viewBox="0 0 799836 541824" xmlns:inkscape="http://www.inkscape.org/namespaces/inkscape">
	<g type="op image" label="Image (100%, 50mm/s)" lock="False" speed="50.0" color="#00000000" frequency="30.0" stopop="True" allowed_attributes="[]" power="1000" dwell_time="50.0" dangerous="False" id="I1" />
	<g type="op raster" lock="False" color="black" output="True" stopop="False" allowed_attributes="[]" speed="150.0" power="1000" dwell_time="50.0" dangerous="False" references="meerk40t:53 meerk40t:54 meerk40t:55 meerk40t:56 meerk40t:57 meerk40t:58 meerk40t:59 meerk40t:60 meerk40t:61 meerk40t:62 meerk40t:63 meerk40t:64 meerk40t:65 meerk40t:66 meerk40t:67 meerk40t:68 meerk40t:69 meerk40t:70 meerk40t:71 meerk40t:72 meerk40t:73 meerk40t:74 meerk40t:75 meerk40t:76 meerk40t:77 meerk40t:78 meerk40t:79 meerk40t:80 meerk40t:81 meerk40t:82 meerk40t:83 meerk40t:84 meerk40t:85 meerk40t:86 meerk40t:87 meerk40t:88 meerk40t:90 meerk40t:91 meerk40t:92 meerk40t:93 meerk40t:94 meerk40t:95 meerk40t:96 meerk40t:97" id="meerk40t:3" />
	<g type="op engrave" label="Engrave (100%, 20mm/s)" lock="False" speed="20.0" color="#0000ff00" frequency="30.0" allowed_attributes="['stroke']" power="1000" dwell_time="50.0" dangerous="False" id="E1" references=" meerk40t:98 meerk40t:99" />
	<g inkscape:label="brackets.svg">
		<ellipse cx="0.0" cy="0.0" rx="2.249998" ry="2.249998" transform="matrix(0.0, 2580.125340434166, 2580.125340434166, 0.0, 94335.43627818748, 168894.4232692697)" stroke_scale="True" type="elem ellipse" id="meerk40t:53" lock="False" mkparam="('circle', 0, 0.0, 0.0, 0, 1.5909888434561692, -1.59098884345617)" fill-rule="evenodd" stroke="#000000" stroke-width="0.18897648000000003" fill="none" />
		<ellipse cx="0.0" cy="0.0" rx="2.249998" ry="2.249998" transform="matrix(0.0, 2580.125340434166, 2580.125340434166, 0.0, 94206.4325912911, 103161.09115634725)" stroke_scale="True" type="elem ellipse" id="meerk40t:54" lock="False" mkparam="('circle', 0, 0.0, 0.0, 0, 1.5909888434561692, -1.59098884345617)" fill-rule="evenodd" stroke="#000000" stroke-width="0.18897648000000003" fill="none" />
		<path d="M 50.099998,-2 L 24,-2 C 20.686291,-1.999999 18,0.686294 18,4 L 18,55.5 C 18,58.813709 20.686291,61.5 24,61.5 L 50.099998,61.5 C 53.413708,61.5 56.099998,58.813709 56.099998,55.5 L 56.099998,4 C 56.099998,0.686291 53.413708,-2 50.099998,-2 L 50.099998,-2" transform="matrix(0.0, 2580.125340434166, 2580.125340434166, 0.0, 17447.70371337467, 40335.0391167753)" stroke_scale="True" type="elem path" id="meerk40t:55" lock="False" stroke-linecap="butt" stroke-linejoin="miter" fill-rule="evenodd" stroke="#000000" stroke-width="0.18897648000000003" fill="none" />
		<path d="M 37.049999,61.5 L 49.75,61.5" transform="matrix(0.0, 2580.125340434166, 2580.125340434166, 0.0, 17447.70371337467, 40335.0391167753)" stroke_scale="True" type="elem path" id="meerk40t:56" lock="False" stroke-linecap="butt" stroke-linejoin="miter" fill-rule="evenodd" stroke="#000000" stroke-width="0.18897648000000003" fill="none" />
		<ellipse cx="0.0" cy="0.0" rx="2.249998" ry="2.249998" transform="matrix(0.0, 2580.125340434166, 2580.125340434166, 0.0, 159741.6213985696, 103161.09115634725)" stroke_scale="True" type="elem ellipse" id="meerk40t:57" lock="False" mkparam="('circle', 0, 0.0, 0.0, 0, 1.5909888434561692, -1.59098884345617)" fill-rule="evenodd" stroke="#000000" stroke-width="0.18897648000000003" fill="none" />
		<ellipse cx="0.0" cy="0.0" rx="2.249998" ry="2.249998" transform="matrix(0.0, 2580.125340434166, 2580.125340434166, 0.0, 159741.6213985696, 168772.38850091788)" stroke_scale="True" type="elem ellipse" id="meerk40t:58" lock="False" mkparam="('circle', 0, 0.0, 0.0, 0, 1.5909888434561692, -1.59098884345617)" fill-rule="evenodd" stroke="#000000" stroke-width="0.18897648000000003" fill="none" />
		<ellipse cx="0.0" cy="0.0" rx="2.249998" ry="2.249998" transform="matrix(0.0, 2580.125340434166, 2580.125340434166, 0.0, 28671.248944263294, 103161.09115634725)" stroke_scale="True" type="elem ellipse" id="meerk40t:59" lock="False" mkparam="('circle', 0, 0.0, 0.0, 0, 1.5909888434561692, -1.59098884345617)" fill-rule="evenodd" stroke="#000000" stroke-width="0.18897648000000003" fill="none" />
		<ellipse cx="0.0" cy="0.0" rx="2.249998" ry="2.249998" transform="matrix(0.0, 2580.125340434166, 2580.125340434166, 0.0, 28671.248944263294, 169261.06424039608)" stroke_scale="True" type="elem ellipse" id="meerk40t:60" lock="False" mkparam="('circle', 0, 0.0, 0.0, 0, 1.5909888434561692, -1.59098884345617)" fill-rule="evenodd" stroke="#000000" stroke-width="0.18897648000000003" fill="none" />
		<ellipse cx="0.0" cy="0.0" rx="2.25" ry="2.25" transform="matrix(2580.125340434166, 0.0, 0.0, 2580.125340434166, 49053.9837012845, 156569.6857033345)" stroke_scale="True" type="elem ellipse" id="meerk40t:61" lock="False" mkparam="('circle', 0, 0.0, 0.0, 0, 1.5909902576697315, -1.5909902576697323)" fill-rule="evenodd" stroke="#000000" stroke-width="0.18897648000000003" fill="none" />
		<ellipse cx="0.0" cy="0.0" rx="2.25" ry="2.25" transform="matrix(2580.125340434166, 0.0, 0.0, 2580.125340434166, 139358.3706164803, 156569.6857033345)" stroke_scale="True" type="elem ellipse" id="meerk40t:62" lock="False" mkparam="('circle', 0, 0.0, 0.0, 0, 1.5909902576697315, -1.5909902576697323)" fill-rule="evenodd" stroke="#000000" stroke-width="0.18897648000000003" fill="none" />
		<ellipse cx="0.0" cy="0.0" rx="4.600001" ry="4.600001" transform="matrix(2580.125340434166, 0.0, 0.0, 2580.125340434166, 94206.1771588824, 135928.68297986116)" stroke_scale="True" type="elem ellipse" id="meerk40t:63" lock="False" mkparam="('circle', 0, 0.0, 0.0, 0, 3.2526919005648987, -3.2526919005649004)" fill-rule="evenodd" stroke="#000000" stroke-width="0.18897648000000003" fill="none" />
		<path d="M 7.606942,8.112653 L 7.640184,8.018008 L 7.974976,7.967656 L 8.074174,7.952737 L 8.103404,7.615444 L 8.112065,7.515505 L 8.423817,7.383477 L 8.516188,7.344357 L 8.460618,7.010391 L 8.444153,6.911439 L 8.713277,6.706028 L 8.793017,6.645166 L 8.752461,6.553416 L 8.615583,6.243762 L 8.825169,5.977877 L 8.887268,5.899096 L 8.825169,5.820315 L 8.615583,5.55443 L 8.752461,5.244776 L 8.793017,5.153026 L 8.713277,5.092164 L 8.444153,4.886753 L 8.499723,4.552788 L 8.516188,4.453835 L 8.204436,4.321806 L 8.112065,4.282687 L 8.082835,3.945393 L 8.074174,3.845455 L 7.739382,3.795103 L 7.640184,3.780184 L 7.606942,3.685539 L 7.494748,3.366112 L 7.157953,3.400602 L 7.058161,3.410822 L 6.870054,3.129331 L 6.814319,3.045927 L 6.496681,3.163091 L 6.402567,3.197806 L 6.150366,2.971939 L 6.07564,2.905016 L 5.797119,3.097492 L 5.714594,3.154522 L 5.414146,2.998471 L 5.325124,2.952234 L 5.103221,3.207929 L 5.037471,3.283691 L 4.707654,3.207261 L 4.60993,3.184615 L 4.565088,3.274347 L 4.413744,3.577194 L 4.075281,3.585188 L 3.974996,3.587556 L 3.903723,3.918526 L 3.882604,4.016591 L 3.556763,4.108506 L 3.460217,4.13574 L 3.473491,4.474037 L 3.477425,4.574273 L 3.184678,4.744334 L 3.097939,4.794722 L 3.194927,5.11909 L 3.223664,5.215199 L 2.982408,5.45272 L 2.910924,5.523096 L 3.085532,5.813153 L 3.137268,5.899096 L 2.96266,6.189153 L 2.910924,6.275096 L 3.152181,6.512617 L 3.223664,6.582993 L 3.194927,6.679102 L 3.097939,7.00347 L 3.184678,7.053858 L 3.477425,7.223919 L 3.46415,7.562216 L 3.460217,7.662452 L 3.786059,7.754367 L 3.882604,7.781601 L 3.953878,8.112571 L 3.974996,8.210636 L 4.313459,8.218629 L 4.413744,8.220998 L 4.565088,8.523845 L 4.60993,8.613577 L 4.707654,8.590931 L 5.037471,8.514501 L 5.259375,8.770196 L 5.325124,8.845958 L 5.625572,8.689907 L 5.714594,8.64367 L 5.993115,8.836146 L 6.07564,8.893176 L 6.32784,8.667309 L 6.402567,8.600386 L 6.720204,8.71755 L 6.814319,8.752265 L 6.870054,8.668861 L 7.058161,8.38737 L 7.394957,8.42186 L 7.494748,8.43208 L 7.606942,8.112653 L 7.606942,8.112653" transform="matrix(2580.125340434166, 0.0, 0.0, -2580.125340434166, 53032.949796288456, 236314.9715858116)" stroke_scale="True" type="elem path" id="meerk40t:64" lock="False" stroke-linecap="butt" stroke-linejoin="miter" fill-rule="evenodd" stroke="#000000" stroke-width="0.18897648000000003" fill="none" />
		<ellipse cx="0.0" cy="0.0" rx="2.049999" ry="2.049999" transform="matrix(0.0, 2580.125340434166, 2580.125340434166, 0.0, 101020.9744963096, 221094.56967080847)" stroke_scale="True" type="elem ellipse" id="meerk40t:65" lock="False" mkparam="('circle', 0, 0.0, 0.0, 0, 1.4495681943256409, -1.4495681943256415)" fill-rule="evenodd" stroke="#000000" stroke-width="0.18897648000000003" fill="none" />
		<ellipse cx="0.0" cy="0.0" rx="2.0500009999999995" ry="2.0500009999999995" transform="matrix(0.0, 2580.125340434166, 2580.125340434166, 0.0, 35485.74698715099, 221094.56967080847)" stroke_scale="True" type="elem ellipse" id="meerk40t:66" lock="False" mkparam="('circle', 0, 0.0, 0.0, 0, 1.449569608539203, -1.4495696085392036)" fill-rule="evenodd" stroke="#000000" stroke-width="0.18897648000000003" fill="none" />
		<path d="M 24.35,59.531502 L 24.361616,59.531502" transform="matrix(0.0, 2580.125340434166, 2580.125340434166, 0.0, 72559.45705845988, 162140.4240053645)" stroke_scale="True" type="elem path" id="meerk40t:67" lock="False" stroke-linecap="butt" stroke-linejoin="miter" fill-rule="evenodd" stroke="#000000" stroke-width="0.18897648000000003" fill="none" />
		<path d="M 19.835503,-1.362946 C 19.835503,-4.157887 17.596924,-6.42363 14.835503,-6.42363 L -14.835503,-6.42363 C -17.596928,-6.42363 -19.835503,-4.157887 -19.835503,-1.362946 L -19.835503,1.362946 C -19.835503,4.157883 -17.596924,6.42363 -14.835503,6.42363 L 14.835503,6.42363 C 17.596924,6.42363 19.835503,4.157883 19.835503,1.362946 L 19.835503,-1.362946 L 19.835503,-1.362946" transform="matrix(2580.125340434166, 0.0, 0.0, 2549.18705747702, 68405.17918694945, 221072.8192141886)" stroke_scale="True" type="elem path" id="meerk40t:68" lock="False" stroke-linecap="butt" stroke-linejoin="miter" fill-rule="evenodd" stroke="#000000" stroke-width="0.18897648000000003" fill="none" />
		<path d="M 19.835503,-26.863033 C 19.835503,-29.657974 17.596924,-31.923717 14.835503,-31.923717 L -14.835503,-31.923717 C -17.596928,-31.923717 -19.835503,-29.657974 -19.835503,-26.863033 L -19.835503,1.362946 C -19.835503,4.157883 -17.596924,6.42363 -14.835503,6.42363 L 14.835503,6.42363 C 17.596924,6.42363 19.835503,4.157883 19.835503,1.362946 L 19.835503,-26.863033 L 19.835503,-26.863033" transform="matrix(2580.125340434166, 0.0, 0.0, 2549.18705747702, 70985.30452738362, 336139.0818415856)" stroke_scale="True" type="elem path" id="meerk40t:69" lock="False" stroke-linecap="butt" stroke-linejoin="miter" fill-rule="evenodd" stroke="#000000" stroke-width="0.18897648000000003" fill="none" />
		<path d="M 7.606942,8.112653 L 7.640184,8.018008 L 7.974976,7.967656 L 8.074174,7.952737 L 8.103404,7.615444 L 8.112065,7.515505 L 8.423817,7.383477 L 8.516188,7.344357 L 8.460618,7.010391 L 8.444153,6.911439 L 8.713277,6.706028 L 8.793017,6.645166 L 8.752461,6.553416 L 8.615583,6.243762 L 8.825169,5.977877 L 8.887268,5.899096 L 8.825169,5.820315 L 8.615583,5.55443 L 8.752461,5.244776 L 8.793017,5.153026 L 8.713277,5.092164 L 8.444153,4.886753 L 8.499723,4.552788 L 8.516188,4.453835 L 8.204436,4.321806 L 8.112065,4.282687 L 8.082835,3.945393 L 8.074174,3.845455 L 7.739382,3.795103 L 7.640184,3.780184 L 7.606942,3.685539 L 7.494748,3.366112 L 7.157953,3.400602 L 7.058161,3.410822 L 6.870054,3.129331 L 6.814319,3.045927 L 6.496681,3.163091 L 6.402567,3.197806 L 6.150366,2.971939 L 6.07564,2.905016 L 5.797119,3.097492 L 5.714594,3.154522 L 5.414146,2.998471 L 5.325124,2.952234 L 5.103221,3.207929 L 5.037471,3.283691 L 4.707654,3.207261 L 4.60993,3.184615 L 4.565088,3.274347 L 4.413744,3.577194 L 4.075281,3.585188 L 3.974996,3.587556 L 3.903723,3.918526 L 3.882604,4.016591 L 3.556763,4.108506 L 3.460217,4.13574 L 3.473491,4.474037 L 3.477425,4.574273 L 3.184678,4.744334 L 3.097939,4.794722 L 3.194927,5.11909 L 3.223664,5.215199 L 2.982408,5.45272 L 2.910924,5.523096 L 3.085532,5.813153 L 3.137268,5.899096 L 2.96266,6.189153 L 2.910924,6.275096 L 3.152181,6.512617 L 3.223664,6.582993 L 3.194927,6.679102 L 3.097939,7.00347 L 3.184678,7.053858 L 3.477425,7.223919 L 3.46415,7.562216 L 3.460217,7.662452 L 3.786059,7.754367 L 3.882604,7.781601 L 3.953878,8.112571 L 3.974996,8.210636 L 4.313459,8.218629 L 4.413744,8.220998 L 4.565088,8.523845 L 4.60993,8.613577 L 4.707654,8.590931 L 5.037471,8.514501 L 5.259375,8.770196 L 5.325124,8.845958 L 5.625572,8.689907 L 5.714594,8.64367 L 5.993115,8.836146 L 6.07564,8.893176 L 6.32784,8.667309 L 6.402567,8.600386 L 6.720204,8.71755 L 6.814319,8.752265 L 6.870054,8.668861 L 7.058161,8.38737 L 7.394957,8.42186 L 7.494748,8.43208 L 7.606942,8.112653 L 7.606942,8.112653" transform="matrix(2580.125340434166, 0.0, 0.0, -2580.125340434166, 55764.902612380465, 318635.95531363867)" stroke_scale="True" type="elem path" id="meerk40t:70" lock="False" stroke-linecap="butt" stroke-linejoin="miter" fill-rule="evenodd" stroke="#000000" stroke-width="0.18897648000000003" fill="none" />
		<ellipse cx="0.0" cy="0.0" rx="2.049999" ry="2.049999" transform="matrix(0.0, 2580.125340434166, 2580.125340434166, 0.0, 103752.8886105215, 336381.3427104256)" stroke_scale="True" type="elem ellipse" id="meerk40t:71" lock="False" mkparam="('circle', 0, 0.0, 0.0, 0, 1.4495681943256409, -1.4495681943256415)" fill-rule="evenodd" stroke="#000000" stroke-width="0.18897648000000003" fill="none" />
		<ellipse cx="0.0" cy="0.0" rx="2.0500009999999995" ry="2.0500009999999995" transform="matrix(0.0, 2580.125340434166, 2580.125340434166, 0.0, 38217.68174236562, 336625.69090066606)" stroke_scale="True" type="elem ellipse" id="meerk40t:72" lock="False" mkparam="('circle', 0, 0.0, 0.0, 0, 1.449569608539203, -1.4495696085392036)" fill-rule="evenodd" stroke="#000000" stroke-width="0.18897648000000003" fill="none" />
		<ellipse cx="0.0" cy="0.0" rx="2.049999" ry="2.049999" transform="matrix(0.0, 2580.125340434166, 2580.125340434166, 0.0, 70985.30452738362, 336503.5271260472)" stroke_scale="True" type="elem ellipse" id="meerk40t:73" lock="False" mkparam="('circle', 0, 0.0, 0.0, 0, 1.4495681943256409, -1.4495681943256415)" fill-rule="evenodd" stroke="#000000" stroke-width="0.18897648000000003" fill="none" />
		<ellipse cx="0.0" cy="0.0" rx="2.049999" ry="2.049999" transform="matrix(0.0, 2580.125340434166, 2580.125340434166, 0.0, 103752.8886105215, 303415.5533986355)" stroke_scale="True" type="elem ellipse" id="meerk40t:74" lock="False" mkparam="('circle', 0, 0.0, 0.0, 0, 1.4495681943256409, -1.4495681943256415)" fill-rule="evenodd" stroke="#000000" stroke-width="0.18897648000000003" fill="none" />
		<ellipse cx="0.0" cy="0.0" rx="2.049999" ry="2.049999" transform="matrix(0.0, 2580.125340434166, 2580.125340434166, 0.0, 38217.68174236562, 303415.5533986355)" stroke_scale="True" type="elem ellipse" id="meerk40t:75" lock="False" mkparam="('circle', 0, 0.0, 0.0, 0, 1.4495681943256409, -1.4495681943256415)" fill-rule="evenodd" stroke="#000000" stroke-width="0.18897648000000003" fill="none" />
		<ellipse cx="0.0" cy="0.0" rx="2.049999" ry="2.049999" transform="matrix(0.0, 2580.125340434166, 2580.125340434166, 0.0, 38217.68174236562, 270647.96931549767)" stroke_scale="True" type="elem ellipse" id="meerk40t:76" lock="False" mkparam="('circle', 0, 0.0, 0.0, 0, 1.4495681943256409, -1.4495681943256415)" fill-rule="evenodd" stroke="#000000" stroke-width="0.18897648000000003" fill="none" />
		<ellipse cx="0.0" cy="0.0" rx="2.049999" ry="2.049999" transform="matrix(0.0, 2580.125340434166, 2580.125340434166, 0.0, 70985.30452738362, 270647.96931549767)" stroke_scale="True" type="elem ellipse" id="meerk40t:77" lock="False" mkparam="('circle', 0, 0.0, 0.0, 0, 1.4495681943256409, -1.4495681943256415)" fill-rule="evenodd" stroke="#000000" stroke-width="0.18897648000000003" fill="none" />
		<ellipse cx="0.0" cy="0.0" rx="2.049999" ry="2.049999" transform="matrix(0.0, 2580.125340434166, 2580.125340434166, 0.0, 103752.8886105215, 270647.96931549767)" stroke_scale="True" type="elem ellipse" id="meerk40t:78" lock="False" mkparam="('circle', 0, 0.0, 0.0, 0, 1.4495681943256409, -1.4495681943256415)" fill-rule="evenodd" stroke="#000000" stroke-width="0.18897648000000003" fill="none" />
		<path d="M 19.835503,-26.863033 C 19.835503,-29.657974 17.596924,-31.923717 14.835503,-31.923717 L -14.835503,-31.923717 C -17.596928,-31.923717 -19.835503,-29.657974 -19.835503,-26.863033 L -19.835503,1.362946 C -19.835503,4.157883 -17.596924,6.42363 -14.835503,6.42363 L 14.835503,6.42363 C 17.596924,6.42363 19.835503,4.157883 19.835503,1.362946 L 19.835503,-26.863033 L 19.835503,-26.863033" transform="matrix(2580.125340434166, 0.0, 0.0, 2549.18705747702, 176770.44348518443, 336139.0818415856)" stroke_scale="True" type="elem path" id="meerk40t:79" lock="False" stroke-linecap="butt" stroke-linejoin="miter" fill-rule="evenodd" stroke="#000000" stroke-width="0.18897648000000003" fill="none" />
		<path d="M 7.606942,8.112653 L 7.640184,8.018008 L 7.974976,7.967656 L 8.074174,7.952737 L 8.103404,7.615444 L 8.112065,7.515505 L 8.423817,7.383477 L 8.516188,7.344357 L 8.460618,7.010391 L 8.444153,6.911439 L 8.713277,6.706028 L 8.793017,6.645166 L 8.752461,6.553416 L 8.615583,6.243762 L 8.825169,5.977877 L 8.887268,5.899096 L 8.825169,5.820315 L 8.615583,5.55443 L 8.752461,5.244776 L 8.793017,5.153026 L 8.713277,5.092164 L 8.444153,4.886753 L 8.499723,4.552788 L 8.516188,4.453835 L 8.204436,4.321806 L 8.112065,4.282687 L 8.082835,3.945393 L 8.074174,3.845455 L 7.739382,3.795103 L 7.640184,3.780184 L 7.606942,3.685539 L 7.494748,3.366112 L 7.157953,3.400602 L 7.058161,3.410822 L 6.870054,3.129331 L 6.814319,3.045927 L 6.496681,3.163091 L 6.402567,3.197806 L 6.150366,2.971939 L 6.07564,2.905016 L 5.797119,3.097492 L 5.714594,3.154522 L 5.414146,2.998471 L 5.325124,2.952234 L 5.103221,3.207929 L 5.037471,3.283691 L 4.707654,3.207261 L 4.60993,3.184615 L 4.565088,3.274347 L 4.413744,3.577194 L 4.075281,3.585188 L 3.974996,3.587556 L 3.903723,3.918526 L 3.882604,4.016591 L 3.556763,4.108506 L 3.460217,4.13574 L 3.473491,4.474037 L 3.477425,4.574273 L 3.184678,4.744334 L 3.097939,4.794722 L 3.194927,5.11909 L 3.223664,5.215199 L 2.982408,5.45272 L 2.910924,5.523096 L 3.085532,5.813153 L 3.137268,5.899096 L 2.96266,6.189153 L 2.910924,6.275096 L 3.152181,6.512617 L 3.223664,6.582993 L 3.194927,6.679102 L 3.097939,7.00347 L 3.184678,7.053858 L 3.477425,7.223919 L 3.46415,7.562216 L 3.460217,7.662452 L 3.786059,7.754367 L 3.882604,7.781601 L 3.953878,8.112571 L 3.974996,8.210636 L 4.313459,8.218629 L 4.413744,8.220998 L 4.565088,8.523845 L 4.60993,8.613577 L 4.707654,8.590931 L 5.037471,8.514501 L 5.259375,8.770196 L 5.325124,8.845958 L 5.625572,8.689907 L 5.714594,8.64367 L 5.993115,8.836146 L 6.07564,8.893176 L 6.32784,8.667309 L 6.402567,8.600386 L 6.720204,8.71755 L 6.814319,8.752265 L 6.870054,8.668861 L 7.058161,8.38737 L 7.394957,8.42186 L 7.494748,8.43208 L 7.606942,8.112653 L 7.606942,8.112653" transform="matrix(2580.125340434166, 0.0, 0.0, -2580.125340434166, 161550.27894171263, 318636.03271739895)" stroke_scale="True" type="elem path" id="meerk40t:80" lock="False" stroke-linecap="butt" stroke-linejoin="miter" fill-rule="evenodd" stroke="#000000" stroke-width="0.18897648000000003" fill="none" />
		<ellipse cx="0.0" cy="0.0" rx="2.049999" ry="2.049999" transform="matrix(0.0, 2580.125340434166, 2580.125340434166, 0.0, 209538.02756832232, 336381.3633514283)" stroke_scale="True" type="elem ellipse" id="meerk40t:81" lock="False" mkparam="('circle', 0, 0.0, 0.0, 0, 1.4495681943256409, -1.4495681943256415)" fill-rule="evenodd" stroke="#000000" stroke-width="0.18897648000000003" fill="none" />
		<ellipse cx="0.0" cy="0.0" rx="2.0500009999999995" ry="2.0500009999999995" transform="matrix(0.0, 2580.125340434166, 2580.125340434166, 0.0, 144002.85940204654, 336625.69090066606)" stroke_scale="True" type="elem ellipse" id="meerk40t:82" lock="False" mkparam="('circle', 0, 0.0, 0.0, 0, 1.449569608539203, -1.4495696085392036)" fill-rule="evenodd" stroke="#000000" stroke-width="0.18897648000000003" fill="none" />
		<ellipse cx="0.0" cy="0.0" rx="2.049999" ry="2.049999" transform="matrix(0.0, 2580.125340434166, 2580.125340434166, 0.0, 176770.44348518443, 336503.4084402815)" stroke_scale="True" type="elem ellipse" id="meerk40t:83" lock="False" mkparam="('circle', 0, 0.0, 0.0, 0, 1.4495681943256409, -1.4495681943256415)" fill-rule="evenodd" stroke="#000000" stroke-width="0.18897648000000003" fill="none" />
		<ellipse cx="0.0" cy="0.0" rx="2.049999" ry="2.049999" transform="matrix(0.0, 2580.125340434166, 2580.125340434166, 0.0, 209538.02756832232, 303415.6127415183)" stroke_scale="True" type="elem ellipse" id="meerk40t:84" lock="False" mkparam="('circle', 0, 0.0, 0.0, 0, 1.4495681943256409, -1.4495681943256415)" fill-rule="evenodd" stroke="#000000" stroke-width="0.18897648000000003" fill="none" />
		<ellipse cx="0.0" cy="0.0" rx="2.049999" ry="2.049999" transform="matrix(0.0, 2580.125340434166, 2580.125340434166, 0.0, 144002.85940204654, 303415.6127415183)" stroke_scale="True" type="elem ellipse" id="meerk40t:85" lock="False" mkparam="('circle', 0, 0.0, 0.0, 0, 1.4495681943256409, -1.4495681943256415)" fill-rule="evenodd" stroke="#000000" stroke-width="0.18897648000000003" fill="none" />
		<ellipse cx="0.0" cy="0.0" rx="2.049999" ry="2.049999" transform="matrix(0.0, 2580.125340434166, 2580.125340434166, 0.0, 144002.85940204654, 270648.0286583805)" stroke_scale="True" type="elem ellipse" id="meerk40t:86" lock="False" mkparam="('circle', 0, 0.0, 0.0, 0, 1.4495681943256409, -1.4495681943256415)" fill-rule="evenodd" stroke="#000000" stroke-width="0.18897648000000003" fill="none" />
		<ellipse cx="0.0" cy="0.0" rx="2.049999" ry="2.049999" transform="matrix(0.0, 2580.125340434166, 2580.125340434166, 0.0, 209538.02756832232, 270648.0286583805)" stroke_scale="True" type="elem ellipse" id="meerk40t:87" lock="False" mkparam="('circle', 0, 0.0, 0.0, 0, 1.4495681943256409, -1.4495681943256415)" fill-rule="evenodd" stroke="#000000" stroke-width="0.18897648000000003" fill="none" />
		<path d="M 7.606942,8.112653 L 7.640184,8.018008 L 7.974976,7.967656 L 8.074174,7.952737 L 8.103404,7.615444 L 8.112065,7.515505 L 8.423817,7.383477 L 8.516188,7.344357 L 8.460618,7.010391 L 8.444153,6.911439 L 8.713277,6.706028 L 8.793017,6.645166 L 8.752461,6.553416 L 8.615583,6.243762 L 8.825169,5.977877 L 8.887268,5.899096 L 8.825169,5.820315 L 8.615583,5.55443 L 8.752461,5.244776 L 8.793017,5.153026 L 8.713277,5.092164 L 8.444153,4.886753 L 8.499723,4.552788 L 8.516188,4.453835 L 8.204436,4.321806 L 8.112065,4.282687 L 8.082835,3.945393 L 8.074174,3.845455 L 7.739382,3.795103 L 7.640184,3.780184 L 7.606942,3.685539 L 7.494748,3.366112 L 7.157953,3.400602 L 7.058161,3.410822 L 6.870054,3.129331 L 6.814319,3.045927 L 6.496681,3.163091 L 6.402567,3.197806 L 6.150366,2.971939 L 6.07564,2.905016 L 5.797119,3.097492 L 5.714594,3.154522 L 5.414146,2.998471 L 5.325124,2.952234 L 5.103221,3.207929 L 5.037471,3.283691 L 4.707654,3.207261 L 4.60993,3.184615 L 4.565088,3.274347 L 4.413744,3.577194 L 4.075281,3.585188 L 3.974996,3.587556 L 3.903723,3.918526 L 3.882604,4.016591 L 3.556763,4.108506 L 3.460217,4.13574 L 3.473491,4.474037 L 3.477425,4.574273 L 3.184678,4.744334 L 3.097939,4.794722 L 3.194927,5.11909 L 3.223664,5.215199 L 2.982408,5.45272 L 2.910924,5.523096 L 3.085532,5.813153 L 3.137268,5.899096 L 2.96266,6.189153 L 2.910924,6.275096 L 3.152181,6.512617 L 3.223664,6.582993 L 3.194927,6.679102 L 3.097939,7.00347 L 3.184678,7.053858 L 3.477425,7.223919 L 3.46415,7.562216 L 3.460217,7.662452 L 3.786059,7.754367 L 3.882604,7.781601 L 3.953878,8.112571 L 3.974996,8.210636 L 4.313459,8.218629 L 4.413744,8.220998 L 4.565088,8.523845 L 4.60993,8.613577 L 4.707654,8.590931 L 5.037471,8.514501 L 5.259375,8.770196 L 5.325124,8.845958 L 5.625572,8.689907 L 5.714594,8.64367 L 5.993115,8.836146 L 6.07564,8.893176 L 6.32784,8.667309 L 6.402567,8.600386 L 6.720204,8.71755 L 6.814319,8.752265 L 6.870054,8.668861 L 7.058161,8.38737 L 7.394957,8.42186 L 7.494748,8.43208 L 7.606942,8.112653 L 7.606942,8.112653" transform="matrix(2580.125340434166, 0.0, 0.0, -2580.125340434166, 161550.0415701813, 285868.4305733836)" stroke_scale="True" type="elem path" id="meerk40t:88" lock="False" stroke-linecap="butt" stroke-linejoin="miter" fill-rule="evenodd" stroke="#000000" stroke-width="0.18897648000000003" fill="none" />
	</g>
	<g inkscape:label="brackets - 23teeth 1.svg">
		<ellipse cx="0.0" cy="0.0" rx="2.049999" ry="2.049999" transform="matrix(0.0, 2580.077427077512, 2580.077427077512, 0.0, 96081.06455108119, 44042.34374343628)" stroke_scale="True" type="elem ellipse" id="meerk40t:90" lock="False" mkparam="('circle', 0, 0.0, 0.0, 0, 1.4495681943256409, -1.4495681943256415)" fill-rule="evenodd" stroke="#000000" stroke-width="0.18897648000000003" fill="none" />
		<ellipse cx="0.0" cy="0.0" rx="2.0500009999999995" ry="2.0500009999999995" transform="matrix(0.0, 2580.077427077512, 2580.077427077512, 0.0, 30547.05404199611, 44042.34374343628)" stroke_scale="True" type="elem ellipse" id="meerk40t:91" lock="False" mkparam="('circle', 0, 0.0, 0.0, 0, 1.4495696085392031, -1.4495696085392038)" fill-rule="evenodd" stroke="#000000" stroke-width="0.18897648000000003" fill="none" />
		<path d="M 19.835503,-1.362946 C 19.835503,-4.157887 17.596924,-6.42363 14.835503,-6.42363 L -14.835503,-6.42363 C -17.596928,-6.42363 -19.835503,-4.157887 -19.835503,-1.362946 L -19.835503,1.362946 C -19.835503,4.157883 -17.596924,6.42363 -14.835503,6.42363 L 14.835503,6.42363 C 17.596924,6.42363 19.835503,4.157883 19.835503,1.362946 L 19.835503,-1.362946 L 19.835503,-1.362946" transform="matrix(2580.077427077512, 0.0, 0.0, 2549.1397186494255, 63465.87492246402, 44020.59369072601)" stroke_scale="True" type="elem path" id="meerk40t:92" lock="False" stroke-linecap="butt" stroke-linejoin="miter" fill-rule="evenodd" stroke="#000000" stroke-width="0.18897648000000003" fill="none" />
		<path d="M 178.674072,65.204102 L 179.105469,65.02417 L 179.380859,65.4021 L 179.844971,65.345215 L 180.007813,65.783447 L 180.470215,65.854004 L 180.509033,66.320068 L 180.935059,66.512451 L 180.84668,66.97168 L 181.205078,67.272217 L 180.996094,67.69043 L 181.26001,68.076416 L 180.946045,68.422607 L 181.095947,68.865723 L 180.700195,69.114502 L 180.725098,69.581299 L 180.276855,69.714111 L 180.175049,70.17041 L 179.70752,70.177246 L 179.486328,70.589355 L 179.03418,70.469727 L 178.709961,70.806885 L 178.306885,70.56958 L 177.903809,70.806885 L 177.579834,70.469727 L 177.127686,70.589355 L 176.906494,70.177246 L 176.438965,70.17041 L 176.337158,69.714111 L 175.888672,69.581299 L 175.913818,69.114502 L 175.517822,68.865723 L 175.667969,68.422607 L 175.354004,68.076416 L 175.61792,67.69043 L 175.408936,67.272217 L 175.76709,66.971924 L 175.678955,66.512451 L 176.10498,66.320068 L 176.143799,65.854004 L 176.605957,65.783447 L 176.769043,65.345215 L 177.233154,65.4021 L 177.508301,65.02417 L 177.939941,65.204102 L 178.306885,64.914307 L 178.674072,65.204102 L 178.674072,65.204102" transform="matrix(2580.077427077512, 0.0, 0.0, 2580.077427077512, -396731.8155236423, -131043.24560411279)" stroke_scale="True" type="elem path" id="meerk40t:93" lock="False" stroke-linecap="butt" stroke-linejoin="miter" fill-rule="evenodd" stroke="#000000" stroke-width="0.18897648000000003" fill="none" />
		<ellipse cx="0.0" cy="0.0" rx="2.049999" ry="2.049999" transform="matrix(0.0, 2580.077427077512, 2580.077427077512, 0.0, 201864.33710420138, 44042.26634111346)" stroke_scale="True" type="elem ellipse" id="meerk40t:94" lock="False" mkparam="('circle', 0, 0.0, 0.0, 0, 1.4495681943256409, -1.4495681943256415)" fill-rule="evenodd" stroke="#000000" stroke-width="0.18897648000000003" fill="none" />
		<ellipse cx="0.0" cy="0.0" rx="2.0500009999999995" ry="2.0500009999999995" transform="matrix(0.0, 2580.077427077512, 2580.077427077512, 0.0, 136330.09954830277, 44042.26634111346)" stroke_scale="True" type="elem ellipse" id="meerk40t:95" lock="False" mkparam="('circle', 0, 0.0, 0.0, 0, 1.4495696085392031, -1.4495696085392038)" fill-rule="evenodd" stroke="#000000" stroke-width="0.18897648000000003" fill="none" />
		<path d="M 19.835503,-1.362946 C 19.835503,-4.157887 17.596924,-6.42363 14.835503,-6.42363 L -14.835503,-6.42363 C -17.596928,-6.42363 -19.835503,-4.157887 -19.835503,-1.362946 L -19.835503,1.362946 C -19.835503,4.157883 -17.596924,6.42363 -14.835503,6.42363 L 14.835503,6.42363 C 17.596924,6.42363 19.835503,4.157883 19.835503,1.362946 L 19.835503,-1.362946 L 19.835503,-1.362946" transform="matrix(2580.077427077512, 0.0, 0.0, 2549.1397186494255, 169249.049432642, 44020.59369072601)" stroke_scale="True" type="elem path" id="meerk40t:96" lock="False" stroke-linecap="butt" stroke-linejoin="miter" fill-rule="evenodd" stroke="#000000" stroke-width="0.18897648000000003" fill="none" />
		<path d="M 178.674072,65.204102 L 179.105469,65.02417 L 179.380859,65.4021 L 179.844971,65.345215 L 180.007813,65.783447 L 180.470215,65.854004 L 180.509033,66.320068 L 180.935059,66.512451 L 180.84668,66.97168 L 181.205078,67.272217 L 180.996094,67.69043 L 181.26001,68.076416 L 180.946045,68.422607 L 181.095947,68.865723 L 180.700195,69.114502 L 180.725098,69.581299 L 180.276855,69.714111 L 180.175049,70.17041 L 179.70752,70.177246 L 179.486328,70.589355 L 179.03418,70.469727 L 178.709961,70.806885 L 178.306885,70.56958 L 177.903809,70.806885 L 177.579834,70.469727 L 177.127686,70.589355 L 176.906494,70.177246 L 176.438965,70.17041 L 176.337158,69.714111 L 175.888672,69.581299 L 175.913818,69.114502 L 175.517822,68.865723 L 175.667969,68.422607 L 175.354004,68.076416 L 175.61792,67.69043 L 175.408936,67.272217 L 175.76709,66.971924 L 175.678955,66.512451 L 176.10498,66.320068 L 176.143799,65.854004 L 176.605957,65.783447 L 176.769043,65.345215 L 177.233154,65.4021 L 177.508301,65.02417 L 177.939941,65.204102 L 178.306885,64.914307 L 178.674072,65.204102 L 178.674072,65.204102" transform="matrix(2580.077427077512, 0.0, 0.0, 2580.077427077512, -290949.0331852332, -131043.33590682274)" stroke_scale="True" type="elem path" id="meerk40t:97" lock="False" stroke-linecap="butt" stroke-linejoin="miter" fill-rule="evenodd" stroke="#000000" stroke-width="0.18897648000000003" fill="none" />
	</g>
	<path d="M 215.00984252,-9675.44291339 L 215.00984252,-11073.0068898 L 322.51476378,-11825.5413386 L 752.534448819,-12685.5807087 L 1505.06889764,-13438.1151575 L 2687.6230315,-13760.6299213 L 3440.15748031,-13760.6299213 L 4622.71161417,-13545.6200787 L 5267.74114173,-13115.6003937 L 5805.26574803,-12470.5708661 L 6020.27559055,-11718.0364173 L 6127.78051181,-11073.0068898 L 6127.78051181,-10427.9773622 L 6127.78051181,-9890.45275591 L 5805.26574803,-8277.87893701 L 5052.73129921,-6665.30511811 L 3870.17716535,-4837.72145669 L 2472.61318898,-3225.1476378 L 1075.0492126,-1720.07874016 L -4.54747350886E-13,-645.029527559 L -4.54747350886E-13,-2.04636307899E-12 L 6342.79035433,-2.04636307899E-12 M 8815.40354331,-3870.17716535 L 8815.40354331,-2580.11811024 L 9030.41338583,-1505.06889764 L 9567.93799213,-752.534448819 L 10212.9675197,-215.00984252 L 11288.0167323,107.50492126 L 11825.5413386,215.00984252 L 12793.0856299,107.50492126 L 13545.6200787,-215.00984252 L 14190.6496063,-752.534448819 L 14728.1742126,-1505.06889764 L 14943.1840551,-2580.11811024 L 14943.1840551,-5052.73129921 L 14728.1742126,-6020.27559055 L 14190.6496063,-6772.81003937 L 13223.105315,-7202.82972441 L 14083.144685,-7847.85925197 L 14620.6692913,-8385.38385827 L 14728.1742126,-9137.91830709 L 14728.1742126,-11180.511811 L 14620.6692913,-12040.5511811 L 14190.6496063,-12793.0856299 L 13545.6200787,-13438.1151575 L 12793.0856299,-13653.125 L 12148.0561024,-13760.6299213 L 11610.5314961,-13760.6299213 L 10750.492126,-13653.125 L 9997.95767717,-13223.105315 L 9460.43307087,-12685.5807087 L 9137.91830709,-11933.0462598 L 8922.90846457,-11180.511811 L 8922.90846457,-9890.45275591 M 13223.105315,-7202.82972441 L 10642.9872047,-7202.82972441 M 31821.4566929,-3.63797880709E-12 L 31821.4566929,-13653.125 M 28166.2893701,-13653.125 L 35584.128937,-13653.125 M 43754.5029528,-4407.70177165 L 43754.5029528,-7095.32480315 L 43539.4931102,-8277.87893701 L 42894.4635827,-9137.91830709 L 42141.9291339,-9567.93799213 L 41281.8897638,-9675.44291339 L 40636.8602362,-9675.44291339 L 39454.3061024,-9460.43307087 L 38916.7814961,-9030.41338583 L 38379.2568898,-8277.87893701 L 38164.2470472,-7202.82972441 L 38164.2470472,-4515.20669291 L 38164.2470472,-2365.10826772 L 38379.2568898,-1290.05905512 L 39024.2864173,-537.524606299 L 39669.3159449,-107.50492126 L 40636.8602362,107.50492126 L 41604.4045276,107.50492126 L 42679.4537402,-215.00984252 L 43216.9783465,-645.029527559 L 43754.5029528,-1505.06889764 L 43862.007874,-2365.10826772 L 43862.007874,-3225.1476378 M 43754.5029528,-4407.70177165 L 38164.2470472,-4407.70177165 M 52032.3818898,-4407.70177165 L 52032.3818898,-7095.32480315 L 51817.3720472,-8277.87893701 L 51172.3425197,-9137.91830709 L 50419.8080709,-9567.93799213 L 49559.7687008,-9675.44291339 L 48914.7391732,-9675.44291339 L 47732.1850394,-9460.43307087 L 47194.6604331,-9030.41338583 L 46657.1358268,-8277.87893701 L 46442.1259843,-7202.82972441 L 46442.1259843,-4515.20669291 L 46442.1259843,-2365.10826772 L 46657.1358268,-1290.05905512 L 47302.1653543,-537.524606299 L 47947.1948819,-107.50492126 L 48914.7391732,107.50492126 L 49882.2834646,107.50492126 L 50957.3326772,-215.00984252 L 51494.8572835,-645.029527559 L 52032.3818898,-1505.06889764 L 52139.886811,-2365.10826772 L 52139.886811,-3225.1476378 M 52032.3818898,-4407.70177165 L 46442.1259843,-4407.70177165 M 56655.0935039,-11073.0068898 L 56655.0935039,-1290.05905512 L 56762.5984252,-645.029527559 L 56977.6082677,-107.50492126 L 57407.6279528,107.50492126 L 58805.1919291,-3.72324393538E-12 M 54720.0049213,-9567.93799213 L 58697.6870079,-9567.93799213 M 61385.3100394,-13653.125 L 61385.3100394,-3.63797880709E-12 M 66868.0610236,-3.63797880709E-12 L 66868.0610236,-7202.82972441 L 66653.0511811,-8385.38385827 L 66115.5265748,-9030.41338583 L 65255.4872047,-9567.93799213 L 64287.9429134,-9675.44291339 L 63535.4084646,-9675.44291339 L 62675.3690945,-9352.92814961 L 62030.3395669,-9030.41338583 L 61385.3100394,-8385.38385827" transform="matrix(1.0, 0.0, 0.0, 1.0, 237114.8859197719, 52049.31179862357)" stroke_scale="True" type="elem path" id="" label="23 Teeth" lock="False" mkfont="UNIVCL.SHX" mkfontsize="13653.125" mktext="23 Teeth" mkcoordx="237114.8859197719" mkcoordy="52049.31179862357" stroke-linecap="butt" stroke-linejoin="miter" fill-rule="evenodd" inkscape:label="23 Teeth" stroke="#0000ff" stroke-width="1000.0" fill="none" />
	<path d="M 215.00984252,-9675.44291339 L 215.00984252,-11073.0068898 L 322.51476378,-11825.5413386 L 752.534448819,-12685.5807087 L 1505.06889764,-13438.1151575 L 2687.6230315,-13760.6299213 L 3440.15748031,-13760.6299213 L 4622.71161417,-13545.6200787 L 5267.74114173,-13115.6003937 L 5805.26574803,-12470.5708661 L 6020.27559055,-11718.0364173 L 6127.78051181,-11073.0068898 L 6127.78051181,-10427.9773622 L 6127.78051181,-9890.45275591 L 5805.26574803,-8277.87893701 L 5052.73129921,-6665.30511811 L 3870.17716535,-4837.72145669 L 2472.61318898,-3225.1476378 L 1075.0492126,-1720.07874016 L -4.54747350886E-13,-645.029527559 L -4.54747350886E-13,-2.04636307899E-12 L 6342.79035433,-2.04636307899E-12 M 8815.40354331,-3870.17716535 L 8815.40354331,-2580.11811024 L 9030.41338583,-1505.06889764 L 9567.93799213,-752.534448819 L 10212.9675197,-215.00984252 L 11288.0167323,107.50492126 L 11825.5413386,215.00984252 L 12793.0856299,107.50492126 L 13545.6200787,-215.00984252 L 14190.6496063,-752.534448819 L 14728.1742126,-1505.06889764 L 14943.1840551,-2580.11811024 L 14943.1840551,-5052.73129921 L 14728.1742126,-6020.27559055 L 14190.6496063,-6772.81003937 L 13223.105315,-7202.82972441 L 14083.144685,-7847.85925197 L 14620.6692913,-8385.38385827 L 14728.1742126,-9137.91830709 L 14728.1742126,-11180.511811 L 14620.6692913,-12040.5511811 L 14190.6496063,-12793.0856299 L 13545.6200787,-13438.1151575 L 12793.0856299,-13653.125 L 12148.0561024,-13760.6299213 L 11610.5314961,-13760.6299213 L 10750.492126,-13653.125 L 9997.95767717,-13223.105315 L 9460.43307087,-12685.5807087 L 9137.91830709,-11933.0462598 L 8922.90846457,-11180.511811 L 8922.90846457,-9890.45275591 M 13223.105315,-7202.82972441 L 10642.9872047,-7202.82972441 M 31821.4566929,-3.63797880709E-12 L 31821.4566929,-13653.125 M 28166.2893701,-13653.125 L 35584.128937,-13653.125 M 43754.5029528,-4407.70177165 L 43754.5029528,-7095.32480315 L 43539.4931102,-8277.87893701 L 42894.4635827,-9137.91830709 L 42141.9291339,-9567.93799213 L 41281.8897638,-9675.44291339 L 40636.8602362,-9675.44291339 L 39454.3061024,-9460.43307087 L 38916.7814961,-9030.41338583 L 38379.2568898,-8277.87893701 L 38164.2470472,-7202.82972441 L 38164.2470472,-4515.20669291 L 38164.2470472,-2365.10826772 L 38379.2568898,-1290.05905512 L 39024.2864173,-537.524606299 L 39669.3159449,-107.50492126 L 40636.8602362,107.50492126 L 41604.4045276,107.50492126 L 42679.4537402,-215.00984252 L 43216.9783465,-645.029527559 L 43754.5029528,-1505.06889764 L 43862.007874,-2365.10826772 L 43862.007874,-3225.1476378 M 43754.5029528,-4407.70177165 L 38164.2470472,-4407.70177165 M 52032.3818898,-4407.70177165 L 52032.3818898,-7095.32480315 L 51817.3720472,-8277.87893701 L 51172.3425197,-9137.91830709 L 50419.8080709,-9567.93799213 L 49559.7687008,-9675.44291339 L 48914.7391732,-9675.44291339 L 47732.1850394,-9460.43307087 L 47194.6604331,-9030.41338583 L 46657.1358268,-8277.87893701 L 46442.1259843,-7202.82972441 L 46442.1259843,-4515.20669291 L 46442.1259843,-2365.10826772 L 46657.1358268,-1290.05905512 L 47302.1653543,-537.524606299 L 47947.1948819,-107.50492126 L 48914.7391732,107.50492126 L 49882.2834646,107.50492126 L 50957.3326772,-215.00984252 L 51494.8572835,-645.029527559 L 52032.3818898,-1505.06889764 L 52139.886811,-2365.10826772 L 52139.886811,-3225.1476378 M 52032.3818898,-4407.70177165 L 46442.1259843,-4407.70177165 M 56655.0935039,-11073.0068898 L 56655.0935039,-1290.05905512 L 56762.5984252,-645.029527559 L 56977.6082677,-107.50492126 L 57407.6279528,107.50492126 L 58805.1919291,-3.72324393538E-12 M 54720.0049213,-9567.93799213 L 58697.6870079,-9567.93799213 M 61385.3100394,-13653.125 L 61385.3100394,-3.63797880709E-12 M 66868.0610236,-3.63797880709E-12 L 66868.0610236,-7202.82972441 L 66653.0511811,-8385.38385827 L 66115.5265748,-9030.41338583 L 65255.4872047,-9567.93799213 L 64287.9429134,-9675.44291339 L 63535.4084646,-9675.44291339 L 62675.3690945,-9352.92814961 L 62030.3395669,-9030.41338583 L 61385.3100394,-8385.38385827" transform="matrix(1.0, 0.0, 0.0, 1.0, 237114.8859197719, 52049.31179862357)" stroke_scale="True" type="elem path" id="meerk40t:98" label="23 Teeth" lock="False" mkfont="UNIVCL.SHX" mkfontsize="13653.125" mktext="23 Teeth" mkcoordx="237114.8859197719" mkcoordy="52049.31179862357" stroke-linecap="butt" stroke-linejoin="miter" fill-rule="evenodd" inkscape:label="23 Teeth" stroke="#0000ff" stroke-width="1000.0" fill="none" />
	<path d="M 215.00984252,-9675.44291339 L 215.00984252,-11073.0068898 L 322.51476378,-11825.5413386 L 752.534448819,-12685.5807087 L 1505.06889764,-13438.1151575 L 2687.6230315,-13760.6299213 L 3440.15748031,-13760.6299213 L 4622.71161417,-13545.6200787 L 5267.74114173,-13115.6003937 L 5805.26574803,-12470.5708661 L 6020.27559055,-11718.0364173 L 6127.78051181,-11073.0068898 L 6127.78051181,-10427.9773622 L 6127.78051181,-9890.45275591 L 5805.26574803,-8277.87893701 L 5052.73129921,-6665.30511811 L 3870.17716535,-4837.72145669 L 2472.61318898,-3225.1476378 L 1075.0492126,-1720.07874016 L -4.54747350886E-13,-645.029527559 L -4.54747350886E-13,-2.04636307899E-12 L 6342.79035433,-2.04636307899E-12 M 14190.6496063,-13653.125 L 9137.91830709,-13653.125 L 8922.90846457,-5697.76082677 L 9245.42322835,-5697.76082677 L 9675.44291339,-6987.81988189 L 10212.9675197,-7740.35433071 L 10965.5019685,-8385.38385827 L 11718.0364173,-8600.39370079 L 12685.5807087,-8492.88877953 L 13438.1151575,-8277.87893701 L 14190.6496063,-7632.84940945 L 14728.1742126,-6772.81003937 L 14943.1840551,-5912.77066929 L 14943.1840551,-2580.11811024 L 14620.6692913,-1505.06889764 L 14190.6496063,-752.534448819 L 13545.6200787,-215.00984252 L 12470.5708661,107.50492126 L 11503.0265748,107.50492126 L 10750.492126,-2.07478478842E-12 L 9567.93799213,-752.534448819 L 9030.41338583,-1505.06889764 L 8815.40354331,-2580.11811024 L 8815.40354331,-3977.68208661 M 31821.4566929,-1.81898940355E-12 L 31821.4566929,-13653.125 M 28166.2893701,-13653.125 L 35584.128937,-13653.125 M 43754.5029528,-4407.70177165 L 43754.5029528,-7095.32480315 L 43539.4931102,-8277.87893701 L 42894.4635827,-9137.91830709 L 42141.9291339,-9567.93799213 L 41281.8897638,-9675.44291339 L 40636.8602362,-9675.44291339 L 39454.3061024,-9460.43307087 L 38916.7814961,-9030.41338583 L 38379.2568898,-8277.87893701 L 38164.2470472,-7202.82972441 L 38164.2470472,-4515.20669291 L 38164.2470472,-2365.10826772 L 38379.2568898,-1290.05905512 L 39024.2864173,-537.524606299 L 39669.3159449,-107.50492126 L 40636.8602362,107.50492126 L 41604.4045276,107.50492126 L 42679.4537402,-215.00984252 L 43216.9783465,-645.029527559 L 43754.5029528,-1505.06889764 L 43862.007874,-2365.10826772 L 43862.007874,-3225.1476378 M 43754.5029528,-4407.70177165 L 38164.2470472,-4407.70177165 M 52032.3818898,-4407.70177165 L 52032.3818898,-7095.32480315 L 51817.3720472,-8277.87893701 L 51172.3425197,-9137.91830709 L 50419.8080709,-9567.93799213 L 49559.7687008,-9675.44291339 L 48914.7391732,-9675.44291339 L 47732.1850394,-9460.43307087 L 47194.6604331,-9030.41338583 L 46657.1358268,-8277.87893701 L 46442.1259843,-7202.82972441 L 46442.1259843,-4515.20669291 L 46442.1259843,-2365.10826772 L 46657.1358268,-1290.05905512 L 47302.1653543,-537.524606299 L 47947.1948819,-107.50492126 L 48914.7391732,107.50492126 L 49882.2834646,107.50492126 L 50957.3326772,-215.00984252 L 51494.8572835,-645.029527559 L 52032.3818898,-1505.06889764 L 52139.886811,-2365.10826772 L 52139.886811,-3225.1476378 M 52032.3818898,-4407.70177165 L 46442.1259843,-4407.70177165 M 56655.0935039,-11073.0068898 L 56655.0935039,-1290.05905512 L 56762.5984252,-645.029527559 L 56977.6082677,-107.50492126 L 57407.6279528,107.50492126 L 58805.1919291,-1.90425453184E-12 M 54720.0049213,-9567.93799213 L 58697.6870079,-9567.93799213 M 61385.3100394,-13653.125 L 61385.3100394,-1.81898940355E-12 M 66868.0610236,-1.81898940355E-12 L 66868.0610236,-7202.82972441 L 66653.0511811,-8385.38385827 L 66115.5265748,-9030.41338583 L 65255.4872047,-9567.93799213 L 64287.9429134,-9675.44291339 L 63535.4084646,-9675.44291339 L 62675.3690945,-9352.92814961 L 62030.3395669,-9030.41338583 L 61385.3100394,-8385.38385827" transform="matrix(1.0, 0.0, 0.0, 1.0, 234607.1360023942, 228308.3059914579)" stroke_scale="True" type="elem path" id="meerk40t:99" label="" lock="False" mkfont="UNIVCL.SHX" mkfontsize="13653.125" mktext="25 Teeth" mkcoordx="237114.8859197719" mkcoordy="52049.31179862357" stroke-linecap="butt" stroke-linejoin="miter" fill-rule="evenodd" stroke="#0000ff" stroke-width="1000.0" fill="none" />
</svg>